<!DOCTYPE svg PUBLIC "-//W3C//DTD SVG 1.1//EN" "http://www.w3.org/Graphics/SVG/1.1/DTD/svg11.dtd">
<svg version="1.1" id="Layer_1" xmlns="http://www.w3.org/2000/svg" xmlns:xlink="http://www.w3.org/1999/xlink" width="800px" height="800px" viewBox="0 0 100 100" enable-background="new 0 0 100 100" xml:space="preserve">
  <g>
    <!-- Outer pin shape in darker green with stroke for contrast -->
    <path fill="#047857" stroke="#065F46" stroke-width="2" d="M50,10.417c-15.581,0-28.201,12.627-28.201,28.201c0,6.327,2.083,12.168,5.602,16.873L45.49,86.823 c0.105,0.202,0.21,0.403,0.339,0.588l0.04,0.069l0.011-0.006c0.924,1.278,2.411,2.111,4.135,2.111c1.556,0,2.912-0.708,3.845-1.799 l0.047,0.027l0.179-0.31c0.264-0.356,0.498-0.736,0.667-1.155L72.475,55.65c3.592-4.733,5.726-10.632,5.726-17.032 C78.201,23.044,65.581,10.417,50,10.417z"/>

    <!-- Bike icon in white -->
    <g>
      <!-- Rear wheel -->
      <circle cx="36" cy="42" r="6.5" fill="none" stroke="#FFFFFF" stroke-width="2.5"/>
      <!-- Front wheel -->
      <circle cx="64" cy="42" r="6.5" fill="none" stroke="#FFFFFF" stroke-width="2.5"/>
      <!-- Frame -->
      <path d="M 42,42 L 50,28 L 58,28 L 64,42" fill="none" stroke="#FFFFFF" stroke-width="2.5" stroke-linecap="round" stroke-linejoin="round"/>
      <path d="M 50,28 L 50,35" fill="none" stroke="#FFFFFF" stroke-width="2.5" stroke-linecap="round"/>
      <path d="M 42,42 L 50,35 L 58,42" fill="none" stroke="#FFFFFF" stroke-width="2.5" stroke-linecap="round" stroke-linejoin="round"/>
      <!-- Handlebars -->
      <path d="M 58,28 L 63,24" fill="none" stroke="#FFFFFF" stroke-width="2.5" stroke-linecap="round"/>
      <!-- Seat post -->
      <path d="M 42,42 L 46,33" fill="none" stroke="#FFFFFF" stroke-width="2.5" stroke-linecap="round"/>
    </g>
  </g>
</svg>
